# xmcd CD database file
#
# Track frame offsets:
#	150
#	18757
#	39912
#	52850
#	74050
#	92267
#	114260
#	144822
#	165622
#	186847
#	206820
#	227025
#	241922
#	265310
#
# Disc length: 3801 seconds
#
# Revision: 1
# Processed by: cddbd v1.5.2PL0 Copyright (c) Steve Scherf et al.
# Submitted via: CDex 1.70beta2
#
DISCID=af0ed70e
DTITLE=水森かおり - 歌謡紀行 IV ～五能線～
DYEAR=2005
DGENRE=JPop
TTITLE0=天橋立
TTITLE1=襟裳岬
TTITLE2=京都の恋
TTITLE3=釧路湿原
TTITLE4=大田ブルース
TTITLE5=東尋坊
TTITLE6=琵琶湖周航の歌
TTITLE7=五能線
TTITLE8=恋路海岸
TTITLE9=長崎の瞳
TTITLE10=思い出運河 （デュエット - 山川豊）
TTITLE11=星の砂
TTITLE12=鳥取砂丘
TTITLE13=北夜行 ～アコースティックヴァージョン～
EXTD=YEAR: 2005
EXTT0=
EXTT1=
EXTT2=
EXTT3=
EXTT4=
EXTT5=
EXTT6=
EXTT7=
EXTT8=
EXTT9=
EXTT10=
EXTT11=
EXTT12=
EXTT13=
PLAYORDER=
